<svg width="100%" height="100%" viewBox="0 0 896 896" version="1.1" xmlns="http://www.w3.org/2000/svg" xmlns:xlink="http://www.w3.org/1999/xlink" xml:space="preserve" xmlns:serif="http://www.serif.com/" style="fill-rule:evenodd;clip-rule:evenodd;stroke-linejoin:round;stroke-miterlimit:2;">
    <g transform="matrix(1,0,0,1,-576.368,-336.618)">
        <path d="M1025.45,336.621L1024,336.618L1022.55,336.621C783.153,337.376 587.736,526.478 576.848,763.359C576.531,765.63 576.368,767.952 576.368,770.311C576.368,771.498 576.405,772.707 576.485,773.935C576.407,777.342 576.368,780.792 576.368,784.251C576.368,1031.31 776.945,1231.88 1024,1231.88C1271.06,1231.88 1471.63,1031.31 1471.63,784.251C1471.63,780.792 1471.59,777.342 1471.52,773.935C1471.6,772.707 1471.63,771.498 1471.63,770.311C1471.63,767.952 1471.47,765.63 1471.15,763.359C1460.25,526.476 1264.86,337.398 1025.45,336.621ZM1090.63,515.65C1086.3,505.728 1081.71,496.437 1076.88,487.83C1066.89,469.996 1056.15,455.473 1044.15,445.746C1037.68,440.499 1031.19,436.618 1024,436.618C1016.81,436.618 1010.32,440.499 1003.85,445.746C991.849,455.473 981.112,469.996 971.115,487.83C951.254,523.258 935.429,570.289 924.944,624.784C913.967,629.14 903.242,634.581 892.909,641.139L815.023,690.572C823.134,606.595 841.799,531.9 866.91,474.105C763.631,526.574 690.01,629.097 678.073,749.631C686.357,752.684 697.869,756.653 708.87,759.519C634.833,819.783 615.925,927.411 668.333,1009.99C724.731,1098.85 842.54,1125.33 931.529,1069.25L932.051,1068.92L957.371,1052.85C961.701,1062.77 966.288,1072.06 971.115,1080.67C981.112,1098.51 991.849,1113.03 1003.85,1122.76C1010.32,1128 1016.81,1131.88 1024,1131.88C1031.19,1131.88 1037.68,1128 1044.15,1122.76C1056.15,1113.03 1066.89,1098.51 1076.88,1080.67C1096.75,1045.24 1112.57,998.206 1123.06,943.718C1134.03,939.362 1144.76,933.921 1155.09,927.363L1232.98,877.93C1224.87,961.906 1206.2,1036.6 1181.09,1094.4C1273.68,1047.36 1342.43,960.098 1364.27,855.696C1329.89,863.893 1286.02,871 1235.47,876.347L1320.73,822.235C1409.77,765.723 1436.18,647.555 1379.67,558.516C1323.27,469.656 1205.46,443.175 1116.47,499.25L1115.95,499.58L1090.63,515.65Z" style="fill:rgb(41,46,57);"/>
        <g transform="matrix(0.975926,0.218101,-0.218101,0.975926,33.0188,-247.825)">
            <g transform="matrix(0.707107,-0.707107,0.707107,0.707107,-200.296,1064.84)">
                <path d="M1144.29,791.096C1144.29,828.585 1174.73,859.021 1212.21,859.021L1408.4,859.021C1445.89,859.021 1476.32,828.585 1476.32,791.096C1476.32,753.754 1446.12,723.409 1408.84,723.173L1408.4,723.172L1335.32,723.172C1324.13,681.85 1297.36,646.9 1261.72,625.019L1408.4,625.019L1408.94,625.02C1500.36,625.317 1574.48,699.619 1574.48,791.096C1574.48,882.757 1500.06,957.173 1408.4,957.173L1212.21,957.173C1120.55,957.173 1046.14,882.757 1046.14,791.096L1144.29,791.096Z" style="fill:rgb(84,80,224);"/>
            </g>
            <g transform="matrix(-0.707107,0.707107,-0.707107,-0.707107,2584.74,517.357)">
                <path d="M1144.29,791.096C1144.29,828.585 1174.73,859.021 1212.21,859.021L1408.4,859.021C1445.89,859.021 1476.32,828.585 1476.32,791.096C1476.32,753.754 1446.12,723.409 1408.84,723.173L1408.4,723.172L1335.32,723.172C1324.13,681.85 1297.36,646.9 1261.72,625.019L1408.4,625.019L1408.94,625.02C1500.36,625.317 1574.48,699.619 1574.48,791.096C1574.48,882.757 1500.06,957.173 1408.4,957.173L1212.21,957.173C1120.55,957.173 1046.14,882.757 1046.14,791.096L1144.29,791.096Z" style="fill:rgb(84,80,224);"/>
            </g>
        </g>
    </g>
</svg>